<svg width="432"
     height="563"
     viewBox="0 0 432 563"
     fill="none"
     xmlns="http://www.w3.org/2000/svg">
  <defs>
    <clipPath id="CLIP_ID_PLACEHOLDER">
      <path d="M216 30C317.79 30 400 111.082 400 210.727C400 268.191 370.845 332.939 333.903 391.454C297.219 449.562 254.088 499.63 228.6 527.333C221.75 534.771 210.71 534.887 203.729 527.682L203.4 527.333C177.912 499.63 134.781 449.562 98.0967 391.454C61.1552 332.939 32 268.191 32 210.727C32.0002 111.082 114.21 30 216 30Z" />
    </clipPath>
  </defs>
  <path d="M216 30C317.79 30 400 111.082 400 210.727C400 268.191 370.845 332.939 333.903 391.454C297.219 449.562 254.088 499.63 228.6 527.333C221.75 534.771 210.71 534.887 203.729 527.682L203.4 527.333C177.912 499.63 134.781 449.562 98.0967 391.454C61.1552 332.939 32 268.191 32 210.727C32.0002 111.082 114.21 30 216 30Z"
        stroke="white"
        stroke-width="26" />
  <path d="M127 336.454V107.392H154.721V209.396H276.784V107.392H304.505V336.454H276.784V234.003H154.721V336.454H127Z"
        fill="white"
        clip-path="url(#CLIP_ID_PLACEHOLDER)" />
</svg>